<svg version="1.1" viewBox="0.0 0.0 960.0 720.0" fill="none" stroke="none" stroke-linecap="square" stroke-miterlimit="10" xmlns:xlink="http://www.w3.org/1999/xlink" xmlns="http://www.w3.org/2000/svg"><clipPath id="p.0"><path d="m0 0l960.0 0l0 720.0l-960.0 0l0 -720.0z" clip-rule="nonzero"/></clipPath><g clip-path="url(#p.0)"><path fill="#000000" fill-opacity="0.0" d="m0 0l960.0 0l0 720.0l-960.0 0z" fill-rule="evenodd"/><path fill="#38761d" d="m198.39108 169.41208l231.811 0l0 173.85828l-231.811 0z" fill-rule="evenodd"/><path stroke="#000000" stroke-width="1.0" stroke-linejoin="round" stroke-linecap="butt" d="m198.39108 169.41208l231.811 0l0 173.85828l-231.811 0z" fill-rule="evenodd"/><path fill="#ff9900" d="m482.99738 234.32545l48.472412 0l0 -22.015747l44.031555 44.03151l-44.031555 44.031494l0 -22.015747l-48.472412 0z" fill-rule="evenodd"/><path fill="#e06666" d="m637.52234 256.34122l0 0c0 -57.246277 46.407227 -103.65355 103.6535 -103.65355l0 0c27.490662 0 53.855347 10.9206085 73.29413 30.35942c19.438843 19.438812 30.359436 45.803497 30.359436 73.29413l0 0c0 57.246246 -46.407288 103.653534 -103.653564 103.653534l0 0c-57.246277 0 -103.6535 -46.407288 -103.6535 -103.653534z" fill-rule="evenodd"/><path stroke="#000000" stroke-width="1.0" stroke-linejoin="round" stroke-linecap="butt" d="m637.52234 256.34122l0 0c0 -57.246277 46.407227 -103.65355 103.6535 -103.65355l0 0c27.490662 0 53.855347 10.9206085 73.29413 30.35942c19.438843 19.438812 30.359436 45.803497 30.359436 73.29413l0 0c0 57.246246 -46.407288 103.653534 -103.653564 103.653534l0 0c-57.246277 0 -103.6535 -46.407288 -103.6535 -103.653534z" fill-rule="evenodd"/></g></svg>